<svg xmlns="http://www.w3.org/2000/svg" viewBox="0 0 920.82 175.98"><defs><style>.cls-1{isolation:isolate;}.cls-2{fill:#f15a29;}.cls-3{fill:#ffde17;}.cls-4{fill:#231f20;}.cls-5{mix-blend-mode:multiply;}.cls-6{fill:#f7c018;}.cls-7{fill:#f59c20;}.cls-8{fill:#da2e38;}.cls-9{fill:#f8c11e;}.cls-10{fill:#379847;}</style></defs><title>logo_pizzamosa</title><g class="cls-1"><g id="Layer_1" data-name="Layer 1"><path class="cls-2" d="M393.08,102c0-3.36.63-10.19,3.63-23.62,3.54-15.84,4-20.14,4-22.25,0-10.85-6.46-17.59-16.86-17.59a28.93,28.93,0,0,0-6.29.69l-.31-1.45-5-1.11a51.87,51.87,0,0,0-11.33-1.17c-15.57,0-28.81,5.37-39.34,16A56.4,56.4,0,0,0,316.77,57c.06-.67.1-1.35.1-2.05a18.93,18.93,0,0,0-5.73-14A19.85,19.85,0,0,0,297,35.5a24.87,24.87,0,0,0-13.32,3.57,24.48,24.48,0,0,0-5.4,4.51,108.75,108.75,0,0,1-10.92-2.31,129.43,129.43,0,0,1-17.7-5.75l-9.27-3.88-1.7,9.9c0,.09,0,.17,0,.26a11.92,11.92,0,0,0-.84-.9,19.85,19.85,0,0,0-14.1-5.4A24.3,24.3,0,0,0,205,43.58a109.22,109.22,0,0,1-10.91-2.31,129.43,129.43,0,0,1-17.7-5.75l-5.22-2.19a16.24,16.24,0,0,0,2.73-9.06,16.08,16.08,0,0,0-7.09-13.73,24.36,24.36,0,0,0-13.9-3.8,29,29,0,0,0-15.18,4.31,17.77,17.77,0,0,0-9.08,15.58,15.56,15.56,0,0,0,7.09,13.18l.1.06c-1.65.74-3.35,1.58-5.12,2.51a35.62,35.62,0,0,0-6.31-11.09c-5.9-7.09-14.25-10.84-24.17-10.84A51,51,0,0,0,84.5,23.16a34.8,34.8,0,0,0-13.13-2.95c-9.05,0-18.93,3.41-29.34,10.14l-6,3.87,8.43,17c-6.54,36.34-7.31,46-7.31,50.09,0,7.88,1.64,13.89,5,18.38,2.65,3.54,7.86,7.77,17.7,7.77a32.92,32.92,0,0,0,20-7.06L85.69,116l-3.9-6.23c-.79-1.28-2.07-4.28-2.36-10.61q3.07.27,6.56.27a52.41,52.41,0,0,0,19.26-3.71,41.26,41.26,0,0,0,15.69-10.4c.77-.83,1.48-1.67,2.17-2.53-2.77,13.67-3.19,18.7-3.19,21.32,0,7.16,1.84,12.83,5.46,16.83,3.84,4.25,9.53,6.4,16.92,6.4,6.66,0,12.94-2.39,18.69-7.11a1.56,1.56,0,0,1,.16.2c2.48,2.76,7.1,6.06,15.07,6.06a26.45,26.45,0,0,0,13.87-4.26c1.91.69,3.51,1.24,4.84,1.67a58.76,58.76,0,0,0,19.16,3.44,29.46,29.46,0,0,0,18.31-5.88c.62-.47,1.19-1,1.73-1.44.11.13.21.28.33.41,2.47,2.76,7.09,6.06,15.06,6.06a26.45,26.45,0,0,0,13.87-4.26c1.91.69,3.51,1.24,4.84,1.67a58.76,58.76,0,0,0,19.16,3.44,29.51,29.51,0,0,0,18.32-5.88,22.91,22.91,0,0,0,6.32-7.14c.51.77,1.05,1.52,1.63,2.24a28.1,28.1,0,0,0,22.76,10.78,29.2,29.2,0,0,0,18.66-6.67c.67-.54,1.33-1.11,2-1.71.21.3.41.59.63.87,2.62,3.43,7.7,7.51,17,7.51,6.86,0,13.39-2.66,19.4-7.92l7.06-6.13-7.16-6S393.08,106.18,393.08,102Z"/><path class="cls-3" d="M73.09,89.05a44.49,44.49,0,0,0-.72,6.67q0,11.77,3.64,17.6a25,25,0,0,1-15.17,5.46q-7.89,0-11.29-4.55t-3.4-13.59q0-9,7.65-51.28l-6.43-13q13.71-8.87,25-8.86a23.63,23.63,0,0,1,6.91,1.15,14.17,14.17,0,0,1,5.34,2.61,45.78,45.78,0,0,1,16.63-3.52q11.4,0,18,8a29.08,29.08,0,0,1,6.62,19.23q0,13.61-9.83,24.28a33.35,33.35,0,0,1-12.75,8.37A44.06,44.06,0,0,1,87,90.75,48.6,48.6,0,0,1,73.09,89.05ZM75.4,75.21a16.29,16.29,0,0,0,3.52.37,20.12,20.12,0,0,0,13.84-5.46,17.45,17.45,0,0,0,6.06-13.48,14.36,14.36,0,0,0-3.21-9.46,11.1,11.1,0,0,0-9-3.89,19.31,19.31,0,0,0-5.59,1Q78.55,60.89,75.4,75.21Z"/><path class="cls-3" d="M143.3,118.66q-7.59,0-11-3.76t-3.4-11.47q0-7.71,7.77-41.32l-6.8-10.2q15.17-9.1,23.91-9.1c3.32,0,5.66.71,7,2.12s2.06,3.7,2.06,6.86q0,1.82-4.49,21.36t-4.49,27.91q0,8.37,3.76,11.65Q150.89,118.67,143.3,118.66Zm23.61-95.09q0,4.68-4.86,8a19,19,0,0,1-11,3.34q-6.19,0-9.77-2.43a7.52,7.52,0,0,1-3.58-6.55q0-5.58,5.22-8.74a21,21,0,0,1,11-3.15,16.56,16.56,0,0,1,9.41,2.42A8.06,8.06,0,0,1,166.91,23.57Z"/><path class="cls-3" d="M190,112.59q-6.68,5.22-12.74,5.22t-9.1-3.4a12.31,12.31,0,0,1-3-8.55,14.31,14.31,0,0,1,3.77-9.53q3.75-4.36,10.68-5.22L199.43,70q-15-.48-20.75-4.49T173,53.25a75.6,75.6,0,0,1,1.34-11,136.42,136.42,0,0,0,18.81,6.13,86.15,86.15,0,0,0,16.75,3,15.43,15.43,0,0,1,5.76-6.12,16.92,16.92,0,0,1,9.1-2.37A11.85,11.85,0,0,1,233.29,46a11,11,0,0,1,3.28,8.26q0,8.85-8.86,12.74L202.58,95.72a49.78,49.78,0,0,0,12.51,2.55l16.5-6.43a34.35,34.35,0,0,1,2.55,12.44q0,5.88-5.58,10.13a21.64,21.64,0,0,1-13.47,4.25,50.7,50.7,0,0,1-16.63-3C196.44,115,193.6,114,190,112.59Z"/><path class="cls-3" d="M263.26,112.59q-6.67,5.22-12.74,5.22t-9.1-3.4a12.35,12.35,0,0,1-3-8.55,14.29,14.29,0,0,1,3.76-9.53c2.5-2.91,6.07-4.65,10.68-5.22L272.73,70q-15-.48-20.75-4.49t-5.71-12.25a75.6,75.6,0,0,1,1.34-11,136.42,136.42,0,0,0,18.81,6.13,86.15,86.15,0,0,0,16.75,3,15.43,15.43,0,0,1,5.76-6.12,17,17,0,0,1,9.1-2.37A11.83,11.83,0,0,1,306.59,46a10.94,10.94,0,0,1,3.28,8.26q0,8.85-8.86,12.74L275.89,95.72a49.63,49.63,0,0,0,12.5,2.55l16.5-6.43a34.35,34.35,0,0,1,2.55,12.44q0,5.88-5.58,10.13a21.64,21.64,0,0,1-13.47,4.25,50.8,50.8,0,0,1-16.63-3Q268.73,114.66,263.26,112.59Z"/><path class="cls-3" d="M361.69,100.7l-1.22-.61a30.85,30.85,0,0,1-9.4,13.65,21.29,21.29,0,0,1-13.65,4.92,20,20,0,0,1-16.51-7.77q-6.2-7.76-6.19-20.75,0-20.15,13.53-33.74t33.68-13.59a44.05,44.05,0,0,1,9.59,1,38,38,0,0,1,.85,5.95,22.88,22.88,0,0,1,12.5-3.89q8.85,0,8.86,9.59,0,3.41-3.83,20.51t-3.82,25.36q0,8.27,3.76,11.41-6.79,6-14.14,6T365,114.29Q361.69,109.92,361.69,100.7ZM337.54,84.19c0,4,.83,7,2.48,9.17a8.46,8.46,0,0,0,7.1,3.21,15,15,0,0,0,9.11-3.4,26.6,26.6,0,0,0,7.52-9.34,241.55,241.55,0,0,1,4.73-29,30.48,30.48,0,0,0-21.6,8.86Q337.54,72.55,337.54,84.19Z"/><path class="cls-4" d="M53.14,110.57Q49.75,106,49.74,97T57.39,45.7L51.59,34c-1.68.91-3.38,1.92-5.12,3L52.9,50q-7.65,42.23-7.64,51.27t3.39,13.6q3.41,4.55,11.29,4.55A25,25,0,0,0,75.11,114c-.23-.38-.45-.79-.66-1.21a23.12,23.12,0,0,1-10,2.34Q56.54,115.12,53.14,110.57Z"/><path class="cls-4" d="M90.16,39.63a19.26,19.26,0,0,0-5.59,1c-.17,1.17-.34,2.32-.52,3.47A13.23,13.23,0,0,1,85.67,44q5.82,0,9,3.88a14.39,14.39,0,0,1,3.22,9.47A17.2,17.2,0,0,1,94.43,68c.65-.48,1.29-1,1.92-1.54A17.42,17.42,0,0,0,102.41,53a14.39,14.39,0,0,0-3.21-9.47Q96,39.63,90.16,39.63Z"/><path class="cls-4" d="M90.58,87.08a48.13,48.13,0,0,1-13.89-1.7c-.35,2.11-.58,3.85-.67,5.23a57,57,0,0,0,10.07.8,44.26,44.26,0,0,0,16.33-3.15,33.44,33.44,0,0,0,12.74-8.38c.34-.36.66-.73,1-1.1a37,37,0,0,1-9.23,5.15A44.21,44.21,0,0,1,90.58,87.08Z"/><path class="cls-4" d="M140.34,33.16q3.58,2.43,9.77,2.43a19.09,19.09,0,0,0,11-3.34,12.09,12.09,0,0,0,3.73-3.85,19.16,19.16,0,0,1-10.29,2.86q-6.19,0-9.77-2.43a7.54,7.54,0,0,1-3.58-6.56,9.64,9.64,0,0,1,1.13-4.63l-.4.23q-5.22,3.15-5.22,8.74A7.55,7.55,0,0,0,140.34,33.16Z"/><path class="cls-4" d="M135.91,111.23q-3.41-3.75-3.4-11.47t7.77-41.32l-5.93-8.9q-2.35,1.26-4.9,2.77c0,.3,0,.6,0,.91l6.37,9.55Q128,96.39,128,104.09t3.4,11.47q3.41,3.76,11,3.77t14.38-6a9.66,9.66,0,0,1-.71-.72,19.46,19.46,0,0,1-9.19,2.34C141.84,115,138.17,113.74,135.91,111.23Z"/><path class="cls-4" d="M202.05,112q-3-1-8.5-3c-4.45,3.47-8.69,5.22-12.74,5.22s-7.08-1.14-9.1-3.4a12.39,12.39,0,0,1-3-8.56,13.78,13.78,0,0,1,2.6-8A14,14,0,0,0,168,97a14.31,14.31,0,0,0-3.76,9.53,12.39,12.39,0,0,0,3,8.56q3,3.39,9.1,3.4c4.05,0,8.3-1.75,12.75-5.22q5.46,2.05,8.49,3a50.82,50.82,0,0,0,16.63,3,21.6,21.6,0,0,0,13.47-4.25,16,16,0,0,0,3.58-3.7A21.84,21.84,0,0,1,218.68,115,50.82,50.82,0,0,1,202.05,112Z"/><path class="cls-4" d="M203,66.33q-15-.48-20.75-4.49t-5.71-12.26a45.09,45.09,0,0,1,.45-5.29c-1.23-.47-2.44-.94-3.6-1.42a75.25,75.25,0,0,0-1.33,11q0,8.25,5.7,12.26t20.75,4.49L182.64,87.52l.48-.07Z"/><path class="cls-4" d="M275.35,112q-3-1-8.49-3c-4.45,3.47-8.7,5.22-12.75,5.22S247,113,245,110.75a12.39,12.39,0,0,1-3-8.56,13.78,13.78,0,0,1,2.6-8A14,14,0,0,0,241.25,97a14.31,14.31,0,0,0-3.76,9.53,12.39,12.39,0,0,0,3,8.56q3,3.39,9.11,3.4c4,0,8.29-1.75,12.74-5.22q5.46,2.05,8.49,3a50.82,50.82,0,0,0,16.63,3A21.6,21.6,0,0,0,301,115.08a16,16,0,0,0,3.58-3.7A21.84,21.84,0,0,1,292,115,50.82,50.82,0,0,1,275.35,112Z"/><path class="cls-4" d="M276.32,66.33q-15-.48-20.75-4.49t-5.7-12.26a44.66,44.66,0,0,1,.44-5.29c-1.23-.47-2.44-.94-3.6-1.42a75.25,75.25,0,0,0-1.33,11q0,8.25,5.7,12.26t20.75,4.49L255.94,87.52l.48-.07Z"/><path class="cls-4" d="M368.62,110.63q-3.35-4.38-3.34-13.6l-1.21-.6a36.83,36.83,0,0,1-3.24,6.6c.19,5.3,1.28,9.29,3.3,11.93q3.33,4.37,10.68,4.37t14.14-6a7.8,7.8,0,0,1-.71-.7A18.92,18.92,0,0,1,379.3,115Q371.95,115,368.62,110.63Z"/><path class="cls-4" d="M324.5,107.23q-6.18-7.77-6.19-20.75,0-19,12-32.16c-1,.86-2,1.77-3,2.75q-13.55,13.59-13.54,33.74,0,13,6.19,20.75a20.07,20.07,0,0,0,16.51,7.77,21.27,21.27,0,0,0,13.65-4.92,27,27,0,0,0,3.94-3.92A21.22,21.22,0,0,1,341,115,20.07,20.07,0,0,1,324.5,107.23Z"/><path class="cls-4" d="M348.09,62.5a30,30,0,0,1,19.5-7,239.37,239.37,0,0,0-4.74,29,30.38,30.38,0,0,1-3.33,5.23l.3-.21a26.55,26.55,0,0,0,7.52-9.35,239.37,239.37,0,0,1,4.74-29A30.45,30.45,0,0,0,350.47,60C349.62,60.83,348.83,61.66,348.09,62.5Z"/><path class="cls-2" d="M890.58,107.3s-.92-1.12-.92-5.3c0-3.36.63-10.19,3.63-23.62,3.54-15.84,4-20.14,4-22.25,0-10.85-6.46-17.59-16.86-17.59a28.93,28.93,0,0,0-6.29.69l-.31-1.45-5-1.11a51.84,51.84,0,0,0-11.32-1.17c-15.57,0-28.81,5.37-39.35,16-.9.91-1.76,1.85-2.59,2.8-.81-4.31-3.48-9.42-10.65-13.59-5.87-3.42-13.19-5.16-21.74-5.16a80.8,80.8,0,0,0-21.43,2.66,39,39,0,0,0-17.93,10.46,28.41,28.41,0,0,0-4.38,5.81c-.41-.54-.83-1.09-1.29-1.59a23.38,23.38,0,0,0-15.81-8q-.35-1.47-.81-2.85l-1.43-4.3-4.42-1A47.89,47.89,0,0,0,705.2,35.5c-15,0-27.67,4.87-37.55,14.46l-.06.06c1.11-6.59,1.32-9.05,1.32-10.4,0-14.22-9-19.29-17.35-19.29a49.23,49.23,0,0,0-21.78,4.94,52.8,52.8,0,0,0-17.12,13.34,97.7,97.7,0,0,0-8.47,11.87,82.72,82.72,0,0,0-3.68-12.11,29.34,29.34,0,0,0-7.35-11.11,25.42,25.42,0,0,0-9.77-5.68,37.2,37.2,0,0,0-10.71-1.37c-9.06,0-18.93,3.41-29.34,10.14l-6,3.88,8.43,17c-6.54,36.34-7.31,46-7.31,50.09,0,7.87,1.64,13.89,5,18.38,2.65,3.54,7.86,7.77,17.7,7.77a32.87,32.87,0,0,0,20-7.07l4.64-3.48.4.4a15.77,15.77,0,0,0,11,4.44A27.28,27.28,0,0,0,616.38,114l2.18-2,0-.15a23.37,23.37,0,0,0,3.76,7.89c2.64,3.54,7.86,7.77,17.69,7.77a32.83,32.83,0,0,0,20-7.07l4.81-3.6c7.61,7,17.76,10.54,30.2,10.54a48.42,48.42,0,0,0,18.46-3.69,52.18,52.18,0,0,0,15.9-10.25c1-.89,1.86-1.85,2.74-2.85,1.08,4.29,4.11,9.46,11.95,12.83,6.18,2.67,14.75,4,26.19,4A64.2,64.2,0,0,0,795.34,122l.14-.06a32.26,32.26,0,0,0,12.06-9.3,32.57,32.57,0,0,0,2.69,3.94A28.14,28.14,0,0,0,833,127.35a29.17,29.17,0,0,0,18.65-6.67c.68-.54,1.34-1.11,2-1.71q.3.45.63.87c2.61,3.43,7.7,7.51,17,7.51,6.86,0,13.39-2.66,19.4-7.92l7-6.13Z"/><path class="cls-3" d="M641,118.78q-7.89,0-11.29-4.55t-3.39-13.41q0-8.86,5.7-40.78h-1.94a86.16,86.16,0,0,0-12.26,23.18,103.23,103.23,0,0,0-6,24.27,19.4,19.4,0,0,1-13.71,5.59,7.77,7.77,0,0,1-5.52-2.25Q590.3,108.6,588,103q-4.5-11.28-6.44-43h-1.94q-5.94,26.1-5.94,36.77t3.64,16.51a25,25,0,0,1-15.17,5.46q-7.89,0-11.29-4.55t-3.4-13.59q0-9,7.65-51.28l-6.43-13q13.71-8.87,25-8.86a29.78,29.78,0,0,1,8.43,1,17.49,17.49,0,0,1,6.68,3.94,21.43,21.43,0,0,1,5.27,8.13Q598.8,52.4,600.86,75h1.46a98.55,98.55,0,0,1,17.47-31.92A44.38,44.38,0,0,1,634.3,31.77a41,41,0,0,1,18.26-4.13q9.35,0,9.35,11.29,0,3.75-4.68,28t-4.67,28.82q0,11.77,3.64,17.6A25,25,0,0,1,641,118.78Z"/><path class="cls-3" d="M721.49,52a15.23,15.23,0,0,1,11.71,5.46q4.92,5.46,4.92,15.84a49.64,49.64,0,0,1-3.64,19.18,40.87,40.87,0,0,1-9.59,14.38,44,44,0,0,1-13.47,8.68A40.22,40.22,0,0,1,696,118.66q-15.9,0-25.12-8.74t-9.23-23.18q0-19.53,12.56-31.73t32-12.2a40,40,0,0,1,8.74,1,31.36,31.36,0,0,1,1.46,9.1A16.17,16.17,0,0,1,721.49,52ZM706.57,68.9a21.54,21.54,0,0,1,1.63-7.64,14.51,14.51,0,0,1,5.28-6.8q-16,3.4-22.09,13a31.45,31.45,0,0,0-5.21,17q0,8.73,3.58,14t9.16,5.28q12.38,0,17.48-16.14Q706.56,81.53,706.57,68.9Z"/><path class="cls-3" d="M781.08,59a17.86,17.86,0,0,0-7.16,3.82,21.67,21.67,0,0,0-4.73,7.1q20.5,3,28.88,8.74t8.38,16.26a18.5,18.5,0,0,1-3.77,11.59,24.13,24.13,0,0,1-9.46,7.47,56.14,56.14,0,0,1-22,4.73q-30.71,0-30.7-13.23,0-6.68,5.94-13.35a24,24,0,0,0,9.17,7.28,26.74,26.74,0,0,0,12,3q10.07,0,12.14-8.86-18.45-2.19-26.7-8.25t-8.26-17.12a20.29,20.29,0,0,1,5.77-14.68,31,31,0,0,1,14.32-8.31,72.34,72.34,0,0,1,19.3-2.37q10.74,0,17.71,4.06c4.66,2.72,7,6,7,9.9a10.71,10.71,0,0,1-4.06,9A14.17,14.17,0,0,1,796,68.9a15.76,15.76,0,0,1-8.74-2.55A16.68,16.68,0,0,1,781.08,59Z"/><path class="cls-3" d="M858.27,100.7l-1.22-.61a30.85,30.85,0,0,1-9.4,13.65A21.3,21.3,0,0,1,834,118.66a20,20,0,0,1-16.5-7.77q-6.19-7.76-6.19-20.75,0-20.15,13.53-33.74t33.68-13.59a44.12,44.12,0,0,1,9.59,1,39.24,39.24,0,0,1,.85,5.95,22.88,22.88,0,0,1,12.5-3.89q8.85,0,8.86,9.59,0,3.41-3.83,20.51t-3.82,25.36q0,8.27,3.76,11.41-6.79,6-14.14,6t-10.68-4.37Q858.27,109.92,858.27,100.7ZM834.11,84.19c0,4,.83,7,2.49,9.17a8.46,8.46,0,0,0,7.1,3.21,15,15,0,0,0,9.11-3.4,26.6,26.6,0,0,0,7.52-9.34,241.55,241.55,0,0,1,4.73-29,30.48,30.48,0,0,0-21.6,8.86Q834.12,72.55,834.11,84.19Z"/><path class="cls-4" d="M717.07,50.79l-1.7.39c0,.31,0,.64,0,1A15.62,15.62,0,0,1,717.07,50.79Z"/><path class="cls-4" d="M596.26,107.17q-2.37-2.25-4.67-7.83-4.5-11.3-6.44-43h-1.94q-1.2,5.29-2.16,9.95,2,27.08,6.05,37.34,2.31,5.58,4.67,7.83a7.76,7.76,0,0,0,5.52,2.24A19.47,19.47,0,0,0,611,108.16c0-.38.09-.76.14-1.14a19.12,19.12,0,0,1-9.37,2.39A7.76,7.76,0,0,1,596.26,107.17Z"/><path class="cls-4" d="M605.91,71.31a98.55,98.55,0,0,1,17.47-31.92l1-1.08a44.11,44.11,0,0,0-5.44,5.41A95,95,0,0,0,604.17,68.4c.1,1,.19,1.92.28,2.91Z"/><path class="cls-4" d="M554.45,110.57q-3.39-4.56-3.4-13.6T558.7,45.7L552.9,34c-1.68.91-3.38,1.92-5.12,3l6.43,13q-7.65,42.23-7.65,51.27t3.4,13.6q3.4,4.55,11.29,4.55A25,25,0,0,0,576.42,114c-.24-.38-.45-.79-.67-1.2a23.17,23.17,0,0,1-10,2.33Q557.85,115.12,554.45,110.57Z"/><path class="cls-4" d="M633.34,110.57q-3.4-4.56-3.4-13.42t5.7-40.77H633.7c-1.05,1.38-2.06,2.83-3,4.33h.49q-5.7,31.92-5.7,40.77t3.4,13.42q3.39,4.55,11.29,4.55A25,25,0,0,0,655.31,114c-.24-.38-.45-.79-.67-1.21a23.05,23.05,0,0,1-10,2.34Q636.73,115.12,633.34,110.57Z"/><path class="cls-4" d="M699.6,115q-15.9,0-25.12-8.74t-9.23-23.18q0-17.88,10.52-29.6c-.83.7-1.65,1.42-2.44,2.19q-12.57,12.19-12.56,31.74,0,14.45,9.22,23.18t25.12,8.74a40.19,40.19,0,0,0,15.41-3.1A43.65,43.65,0,0,0,724,107.55a32.64,32.64,0,0,0,2.37-2.47A43.45,43.45,0,0,1,715,111.9,40.23,40.23,0,0,1,699.6,115Z"/><path class="cls-4" d="M710.16,65.24a21.54,21.54,0,0,1,1.63-7.65,14.58,14.58,0,0,1,3.63-5.45c0-.32,0-.65,0-1q-13,3.15-19,10.68,6.14-4.59,16.22-6.73a14.36,14.36,0,0,0-5.28,6.79,21.57,21.57,0,0,0-1.64,7.65q0,12.62,9.83,18.69A32.35,32.35,0,0,1,711,97.67q5.88-3.83,9-13.74Q710.15,77.85,710.16,65.24Z"/><path class="cls-4" d="M783.34,89.87q-18.45-2.18-26.7-8.25t-8.25-17.11a20.36,20.36,0,0,1,4.43-13.18,30.16,30.16,0,0,0-3.16,2.82,20.3,20.3,0,0,0-5.76,14.69q0,11,8.25,17.11t26.7,8.25a13.51,13.51,0,0,1-1.2,3.28Q782,95.4,783.34,89.87Z"/><path class="cls-4" d="M790.8,62.69a16.73,16.73,0,0,1-6.13-7.4,17.74,17.74,0,0,0-7.16,3.82,16.56,16.56,0,0,0-2.25,2.64,20.61,20.61,0,0,1,4.92-2.13,16.73,16.73,0,0,0,6.13,7.4,15.76,15.76,0,0,0,8.74,2.55,14.1,14.1,0,0,0,8.86-3.16,10.13,10.13,0,0,0,2.67-3.11,13.68,13.68,0,0,1-7,1.94A15.76,15.76,0,0,1,790.8,62.69Z"/><path class="cls-4" d="M774.84,115q-30.71,0-30.7-13.23a16.82,16.82,0,0,1,2.19-8.08c-.26-.31-.51-.62-.73-.94q-6,6.68-6,13.35,0,13.23,30.7,13.23a55.94,55.94,0,0,0,22-4.74,24,24,0,0,0,9.12-7,24.43,24.43,0,0,1-4.63,2.71A56,56,0,0,1,774.84,115Z"/><path class="cls-4" d="M865.19,110.63q-3.33-4.38-3.33-13.6l-1.22-.6a36.81,36.81,0,0,1-3.23,6.6c.19,5.3,1.28,9.29,3.3,11.93q3.33,4.37,10.68,4.37t14.13-6a6.61,6.61,0,0,1-.7-.7,18.92,18.92,0,0,1-9,2.32Q868.54,115,865.19,110.63Z"/><path class="cls-4" d="M844.67,62.5a30,30,0,0,1,19.5-7,239.37,239.37,0,0,0-4.74,29,30.38,30.38,0,0,1-3.33,5.23l.3-.21a26.55,26.55,0,0,0,7.52-9.35,241.11,241.11,0,0,1,4.73-29A30.44,30.44,0,0,0,847.05,60C846.2,60.83,845.41,61.66,844.67,62.5Z"/><path class="cls-4" d="M821.08,107.23q-6.2-7.77-6.19-20.75,0-19,12-32.16c-1,.87-2,1.77-3,2.75Q810.4,70.66,810.4,90.81q0,13,6.19,20.75a20.07,20.07,0,0,0,16.51,7.77,21.29,21.29,0,0,0,13.65-4.92,27,27,0,0,0,3.94-3.92A21.22,21.22,0,0,1,837.58,115,20.06,20.06,0,0,1,821.08,107.23Z"/><g class="cls-5"><path class="cls-4" d="M470.7,121.56c-5,.87-9.91,1.75-14.87,2.61-2.58.45-5.16.91-7.75,1.28-1,.14-1.37.5-1.35,1.58.08,3.91,0,7.82,0,11.72a2.76,2.76,0,0,1-1.94,2.86,2.67,2.67,0,0,1-3.15-1,3.44,3.44,0,0,1-.51-2.12c0-3.46-.05-6.93,0-10.39,0-1.21-.37-1.4-1.44-1.2-3.2.6-6.41,1.17-9.64,1.65-.91.14-1.08.48-1.07,1.32,0,6.19,0,12.37,0,18.55a2.85,2.85,0,0,1-1.45,2.72,2.56,2.56,0,0,1-2.81-.12,3.26,3.26,0,0,1-1.33-3.11c0-5.54,0-11.07,0-16.61,0-.54.5-1.64-.76-1.43-.92.15-2.34-.39-2.32,1.57.07,9.75,0,19.49,0,29.23,0,2.41-1.92,3.87-3.88,3a3.07,3.07,0,0,1-1.72-3.16c0-7,.24-14.06-.06-21.07A30,30,0,0,1,418,124.61c6.62-13.69,12.9-27.55,19.32-41.34.12-.27.27-.53.41-.79,4.36,4,9.4,5.89,15.35,4.88a17.19,17.19,0,0,0,14.39-17.81c-.46-9.09-6.81-15.5-15.94-16.64,1.49-3.27,3-6.54,4.46-9.83.46-1,1-.47,1.51-.19a101.59,101.59,0,0,1,50.95,70.22c.09.43.1.89.22,1.31s0,.8-.56.9q-11.55,1.89-23.08,3.82A10.67,10.67,0,0,0,474.57,115C471,115.52,469.46,118.11,470.7,121.56ZM488,104.31a7,7,0,1,0-7-7.11A7,7,0,0,0,488,104.31Zm-34.34,4a7,7,0,1,0-7.08,7A6.88,6.88,0,0,0,453.67,108.28Z"/><path class="cls-4" d="M528.05,111.47c.17.38-.23.52-.81.62-4.58.76-9.16,1.51-13.73,2.34-1.09.19-1.08-.45-1.21-1.15a105.05,105.05,0,0,0-52.89-73.6c-1.28-.71-1.35-1.22-.75-2.43q2.77-5.66,5.32-11.42c.49-1.11.89-1.22,1.92-.64,31.77,17.73,52.1,44.19,60.75,79.57C527.17,106.87,527.54,109,528.05,111.47Z"/><path class="cls-4" d="M451.52,52.91c9.13,1.14,15.48,7.55,15.94,16.64a17.19,17.19,0,0,1-14.39,17.81c-5.95,1-11-.88-15.35-4.88C442.26,72.6,446.76,62.7,451.52,52.91Z"/><path class="cls-4" d="M470.7,121.56c-1.24-3.45.28-6,3.87-6.57A10.67,10.67,0,0,1,485,119.14Q477.9,120.58,470.7,121.56Z"/><path class="cls-4" d="M446.76,154.62c0,.94.06,1.88,0,2.81a2.79,2.79,0,0,1-3,2.67,2.76,2.76,0,0,1-2.61-2.86c0-1.77,0-3.55,0-5.32a2.77,2.77,0,0,1,2.65-2.82,2.8,2.8,0,0,1,2.93,2.71C446.82,152.74,446.76,153.68,446.76,154.62Z"/><path class="cls-4" d="M488,104.31a7,7,0,1,1,7.14-7A7,7,0,0,1,488,104.31Z"/><path class="cls-4" d="M453.67,108.28a7,7,0,1,1-14-.13,7,7,0,0,1,14,.13Z"/></g><path class="cls-6" d="M468.7,115.56c-5,.87-9.91,1.75-14.87,2.61-2.58.45-5.16.91-7.75,1.28-1,.14-1.37.5-1.35,1.58.08,3.91,0,7.82,0,11.72a2.76,2.76,0,0,1-1.94,2.86,2.67,2.67,0,0,1-3.15-1,3.44,3.44,0,0,1-.51-2.12c0-3.46-.05-6.93,0-10.39,0-1.21-.37-1.4-1.44-1.2-3.2.6-6.41,1.17-9.64,1.65-.91.14-1.08.48-1.07,1.32,0,6.19,0,12.37,0,18.55a2.85,2.85,0,0,1-1.45,2.72,2.56,2.56,0,0,1-2.81-.12,3.26,3.26,0,0,1-1.33-3.11c0-5.54,0-11.07,0-16.61,0-.54.5-1.64-.76-1.43-.92.15-2.34-.39-2.32,1.57.07,9.75,0,19.49,0,29.23,0,2.41-1.92,3.87-3.88,3a3.07,3.07,0,0,1-1.72-3.16c0-7,.24-14.06-.06-21.07A30,30,0,0,1,416,118.61c6.62-13.69,12.9-27.55,19.32-41.34.12-.27.27-.53.41-.79,4.36,4,9.4,5.89,15.35,4.88a17.19,17.19,0,0,0,14.39-17.81c-.46-9.09-6.81-15.5-15.94-16.64,1.49-3.27,3-6.54,4.46-9.83.46-1,1-.47,1.51-.19a101.59,101.59,0,0,1,50.95,70.22c.09.43.1.89.22,1.31s0,.8-.56.9q-11.55,1.89-23.08,3.82A10.67,10.67,0,0,0,472.57,109C469,109.52,467.46,112.11,468.7,115.56ZM486,98.31a7,7,0,1,0-7-7.11A7,7,0,0,0,486,98.31Zm-34.34,4a7,7,0,1,0-7.08,7A6.88,6.88,0,0,0,451.67,102.28Z"/><path class="cls-7" d="M526.05,105.47c.17.38-.23.52-.81.62-4.58.76-9.16,1.51-13.73,2.34-1.09.19-1.08-.45-1.21-1.15a105.05,105.05,0,0,0-52.89-73.6c-1.28-.71-1.35-1.22-.75-2.43q2.77-5.66,5.32-11.42c.49-1.11.89-1.22,1.92-.64,31.77,17.73,52.1,44.19,60.75,79.57C525.17,100.87,525.54,103,526.05,105.47Z"/><path class="cls-8" d="M449.52,46.91c9.13,1.14,15.48,7.55,15.94,16.64a17.19,17.19,0,0,1-14.39,17.81c-5.95,1-11-.88-15.35-4.88C440.26,66.6,444.76,56.7,449.52,46.91Z"/><path class="cls-8" d="M468.7,115.56c-1.24-3.45.28-6,3.87-6.57A10.67,10.67,0,0,1,483,113.14Q475.9,114.58,468.7,115.56Z"/><path class="cls-9" d="M444.76,148.62c0,.94.06,1.88,0,2.81a2.79,2.79,0,0,1-3,2.67,2.76,2.76,0,0,1-2.61-2.86c0-1.77,0-3.55,0-5.32a2.77,2.77,0,0,1,2.65-2.82,2.8,2.8,0,0,1,2.93,2.71C444.82,146.74,444.76,147.68,444.76,148.62Z"/><path class="cls-10" d="M486,98.31a7,7,0,1,1,7.14-7A7,7,0,0,1,486,98.31Z"/><path class="cls-10" d="M451.67,102.28a7,7,0,1,1-14-.13,7,7,0,0,1,14,.13Z"/></g></g></svg>