<?xml version="1.0" encoding="utf-8"?>
<!-- Generator: Adobe Illustrator 23.1.0, SVG Export Plug-In . SVG Version: 6.00 Build 0)  -->
<svg version="1.1" id="Layer_1" xmlns="http://www.w3.org/2000/svg" xmlns:xlink="http://www.w3.org/1999/xlink" x="0px" y="0px"
	 viewBox="0 0 341 67.83" style="enable-background:new 0 0 341 67.83;" xml:space="preserve">
<style type="text/css">
	.st0{fill:#FFDE17;}
	.st1{fill:#FFFFFE;}
	.st2{fill:#F15A29;}
	.st3{fill:#F7C018;}
	.st4{fill:#F59C20;}
	.st5{fill:#DA2E38;}
	.st6{fill:#F8C11E;}
	.st7{fill:#379847;}
</style>
<g>
	<g>
		<path class="st2" d="M140.65,40.02c0-1.31,0.25-3.98,1.42-9.23c1.38-6.19,1.57-7.87,1.57-8.7c0-4.24-2.52-6.87-6.59-6.87
			c-0.83,0-1.65,0.09-2.46,0.27l-0.12-0.57l-1.96-0.43c-1.36-0.3-2.84-0.45-4.42-0.45c-6.08,0-11.26,2.1-15.37,6.23
			c-0.68,0.69-1.31,1.41-1.88,2.15c0.02-0.26,0.04-0.53,0.04-0.8c0-2.17-0.77-4.07-2.24-5.48c-1.43-1.38-3.34-2.11-5.51-2.11
			c-1.96,0-3.71,0.47-5.2,1.39c-0.81,0.5-1.51,1.09-2.11,1.76c-1.17-0.17-2.59-0.47-4.26-0.9c-2.62-0.67-4.95-1.43-6.92-2.25
			L81,12.53l-0.67,3.87c-0.01,0.03-0.01,0.07-0.02,0.1c-0.11-0.12-0.21-0.24-0.33-0.35c-1.43-1.38-3.34-2.11-5.51-2.11
			c-1.96,0-3.71,0.47-5.2,1.39c-0.81,0.5-1.51,1.09-2.11,1.76c-1.17-0.17-2.59-0.47-4.26-0.9c-2.62-0.67-4.95-1.43-6.92-2.25
			l-2.04-0.85c0.84-1.27,1.07-2.54,1.07-3.54c0-2.24-0.98-4.15-2.77-5.36C50.78,3.3,48.95,2.8,46.81,2.8
			c-2.09,0-4.08,0.57-5.93,1.68c-2.29,1.38-3.55,3.55-3.55,6.09c0,2.11,0.98,3.94,2.77,5.15c0.01,0.01,0.03,0.02,0.04,0.03
			c-0.64,0.29-1.31,0.62-2,0.98c-0.55-1.58-1.38-3.03-2.47-4.34c-2.3-2.77-5.57-4.23-9.44-4.23c-1.93,0-4,0.36-6.15,1.06
			c-0.45-0.21-0.95-0.39-1.51-0.57c-1.27-0.39-2.49-0.59-3.62-0.59c-3.54,0-7.39,1.33-11.46,3.96l-2.34,1.51l3.29,6.65
			c-2.55,14.2-2.85,17.97-2.85,19.57c0,3.08,0.64,5.43,1.95,7.18c1.03,1.38,3.07,3.03,6.92,3.03c2.74,0,5.36-0.93,7.8-2.76l2.3-1.72
			l-1.52-2.43c-0.31-0.5-0.81-1.67-0.92-4.14c0.8,0.07,1.66,0.1,2.56,0.1c2.55,0,5.08-0.49,7.52-1.45c2.53-1,4.6-2.37,6.13-4.06
			c0.3-0.32,0.58-0.65,0.85-0.99c-1.08,5.34-1.25,7.31-1.25,8.33c0,2.8,0.72,5.01,2.13,6.58c1.5,1.66,3.72,2.5,6.61,2.5
			c2.6,0,5.05-0.94,7.3-2.78c0.02,0.03,0.04,0.05,0.06,0.08c0.97,1.08,2.77,2.37,5.89,2.37c1.79,0,3.61-0.56,5.42-1.67
			c0.74,0.27,1.37,0.49,1.89,0.65c2.58,0.89,5.1,1.35,7.48,1.35c2.74,0,5.15-0.77,7.16-2.3c0.24-0.18,0.46-0.37,0.67-0.56
			c0.04,0.05,0.08,0.11,0.13,0.16c0.97,1.08,2.77,2.37,5.89,2.37c1.79,0,3.61-0.56,5.42-1.67c0.74,0.27,1.37,0.49,1.89,0.65
			c2.58,0.89,5.1,1.35,7.48,1.35c2.74,0,5.15-0.77,7.16-2.3c1.17-0.89,1.95-1.85,2.47-2.79c0.2,0.3,0.41,0.59,0.64,0.88
			c2.2,2.76,5.27,4.21,8.89,4.21c2.68,0,5.13-0.88,7.29-2.61c0.26-0.21,0.52-0.43,0.77-0.67c0.08,0.12,0.16,0.23,0.24,0.34
			c1.02,1.34,3.01,2.94,6.66,2.94c2.68,0,5.23-1.04,7.58-3.1l2.76-2.4l-2.8-2.35C141,42.09,140.65,41.66,140.65,40.02z"/>
		<path class="st0" d="M15.62,34.96c-0.19,1.14-0.28,2.01-0.28,2.61c0,3.07,0.47,5.36,1.42,6.88c-1.9,1.42-3.87,2.13-5.93,2.13
			c-2.06,0-3.53-0.59-4.41-1.78c-0.89-1.19-1.33-2.96-1.33-5.31c0-2.35,1-9.03,2.99-20.03l-2.51-5.07c3.57-2.31,6.83-3.46,9.77-3.46
			c0.82,0,1.72,0.15,2.7,0.45c0.98,0.3,1.68,0.64,2.09,1.02c2.34-0.92,4.51-1.38,6.5-1.38c2.97,0,5.32,1.04,7.04,3.11
			c1.72,2.07,2.58,4.58,2.58,7.52c0,3.54-1.28,6.7-3.84,9.48c-1.23,1.36-2.89,2.45-4.98,3.27c-2.09,0.82-4.21,1.23-6.38,1.23
			C18.88,35.63,17.07,35.41,15.62,34.96z M16.52,29.56c0.44,0.09,0.9,0.14,1.38,0.14c2.02,0,3.82-0.71,5.41-2.13
			c1.58-1.42,2.37-3.18,2.37-5.26c0-1.45-0.42-2.69-1.26-3.7c-0.84-1.01-2.02-1.52-3.53-1.52c-0.63,0-1.36,0.13-2.18,0.38
			C18.07,21.8,17.34,25.83,16.52,29.56z"/>
		<path class="st0" d="M43.05,46.53c-1.98,0-3.41-0.49-4.29-1.47c-0.89-0.98-1.33-2.47-1.33-4.48c0-2.01,1.01-7.39,3.03-16.15
			l-2.66-3.98c3.95-2.37,7.07-3.56,9.34-3.56c1.3,0,2.21,0.28,2.75,0.83c0.54,0.55,0.81,1.45,0.81,2.68c0,0.47-0.59,3.26-1.75,8.35
			c-1.17,5.09-1.75,8.73-1.75,10.91s0.49,3.7,1.47,4.55C46.9,45.76,45.02,46.53,43.05,46.53z M52.27,9.38c0,1.22-0.63,2.26-1.9,3.13
			c-1.26,0.87-2.7,1.3-4.32,1.3c-1.61,0-2.89-0.32-3.82-0.95c-0.93-0.63-1.4-1.49-1.4-2.56c0-1.45,0.68-2.59,2.04-3.41
			c1.36-0.82,2.8-1.23,4.32-1.23c1.52,0,2.74,0.32,3.68,0.95C51.81,7.24,52.27,8.16,52.27,9.38z"/>
		<path class="st0" d="M61.28,44.16c-1.74,1.36-3.4,2.04-4.98,2.04c-1.58,0-2.77-0.44-3.56-1.33c-0.79-0.88-1.19-2-1.19-3.34
			c0-1.34,0.49-2.58,1.47-3.72c0.98-1.14,2.37-1.82,4.17-2.04l7.78-8.25c-3.92-0.13-6.62-0.71-8.11-1.75
			c-1.49-1.04-2.23-2.64-2.23-4.79c0-0.85,0.17-2.29,0.52-4.32c2.12,0.89,4.57,1.68,7.35,2.39c2.78,0.71,4.96,1.1,6.54,1.16
			c0.51-0.98,1.26-1.78,2.25-2.39c1-0.62,2.18-0.92,3.56-0.92c1.38,0,2.49,0.41,3.34,1.23c0.85,0.82,1.28,1.9,1.28,3.22
			c0,2.31-1.15,3.97-3.46,4.98l-9.82,11.24c2.05,0.63,3.68,0.96,4.88,1l6.45-2.51c0.66,1.71,1,3.33,1,4.86
			c0,1.53-0.73,2.85-2.18,3.96c-1.45,1.11-3.21,1.66-5.26,1.66c-2.06,0-4.22-0.4-6.5-1.19C63.81,45.09,62.7,44.7,61.28,44.16z"/>
		<path class="st0" d="M89.92,44.16c-1.74,1.36-3.4,2.04-4.98,2.04c-1.58,0-2.77-0.44-3.56-1.33c-0.79-0.88-1.19-2-1.19-3.34
			c0-1.34,0.49-2.58,1.47-3.72c0.98-1.14,2.37-1.82,4.17-2.04l7.78-8.25c-3.92-0.13-6.62-0.71-8.11-1.75
			c-1.49-1.04-2.23-2.64-2.23-4.79c0-0.85,0.17-2.29,0.52-4.32c2.12,0.89,4.57,1.68,7.35,2.39c2.78,0.71,4.96,1.1,6.54,1.16
			c0.51-0.98,1.26-1.78,2.25-2.39c1-0.62,2.18-0.92,3.56-0.92c1.38,0,2.49,0.41,3.34,1.23c0.85,0.82,1.28,1.9,1.28,3.22
			c0,2.31-1.15,3.97-3.46,4.98l-9.82,11.24c2.05,0.63,3.68,0.96,4.88,1l6.45-2.51c0.66,1.71,1,3.33,1,4.86
			c0,1.53-0.73,2.85-2.18,3.96c-1.45,1.11-3.21,1.66-5.26,1.66c-2.06,0-4.22-0.4-6.5-1.19C92.45,45.09,91.34,44.7,89.92,44.16z"/>
		<path class="st0" d="M128.38,39.52l-0.47-0.24c-0.85,2.28-2.08,4.05-3.67,5.33c-1.6,1.28-3.38,1.92-5.33,1.92
			c-2.69,0-4.84-1.01-6.45-3.03c-1.61-2.02-2.42-4.73-2.42-8.11c0-5.25,1.76-9.64,5.29-13.18c3.52-3.54,7.91-5.31,13.16-5.31
			c1.36,0,2.61,0.13,3.75,0.38c0.19,0.89,0.3,1.66,0.33,2.32c1.58-1.01,3.21-1.52,4.88-1.52c2.31,0,3.46,1.25,3.46,3.75
			c0,0.89-0.5,3.56-1.49,8.01c-1,4.46-1.49,7.76-1.49,9.91c0,2.15,0.49,3.64,1.47,4.46c-1.77,1.55-3.61,2.32-5.52,2.32
			c-1.91,0-3.3-0.57-4.17-1.71C128.81,43.69,128.38,41.92,128.38,39.52z M118.94,33.07c0,1.55,0.32,2.74,0.97,3.58
			c0.65,0.84,1.57,1.26,2.77,1.26c1.2,0,2.39-0.44,3.56-1.33c1.17-0.88,2.15-2.1,2.94-3.65c0.28-3.19,0.9-6.97,1.85-11.33
			c-3.19,0-6.01,1.15-8.44,3.46C120.16,27.36,118.94,30.03,118.94,33.07z"/>
		<path d="M7.82,43.37c-0.89-1.19-1.33-2.96-1.33-5.31c0-2.35,1-9.03,2.99-20.03l-2.26-4.57c-0.66,0.36-1.32,0.75-2,1.19l2.51,5.07
			c-1.99,11-2.99,17.68-2.99,20.03c0,2.36,0.44,4.13,1.33,5.31c0.88,1.19,2.35,1.78,4.41,1.78c2.05,0,4.03-0.71,5.93-2.13
			c-0.09-0.15-0.18-0.31-0.26-0.47c-1.27,0.6-2.58,0.91-3.92,0.91C10.18,45.15,8.71,44.56,7.82,43.37z"/>
		<path d="M22.28,15.65c-0.63,0-1.36,0.13-2.18,0.38c-0.07,0.46-0.13,0.91-0.2,1.36c0.22-0.03,0.43-0.04,0.63-0.04
			c1.52,0,2.69,0.51,3.53,1.52c0.84,1.01,1.26,2.24,1.26,3.7c0,1.58-0.46,2.97-1.36,4.17c0.25-0.19,0.5-0.38,0.75-0.6
			c1.58-1.42,2.37-3.18,2.37-5.26c0-1.45-0.42-2.69-1.26-3.7C24.98,16.16,23.8,15.65,22.28,15.65z"/>
		<path d="M22.45,34.19c-2.17,0-3.98-0.22-5.43-0.66c-0.14,0.82-0.22,1.5-0.26,2.04c1.15,0.21,2.46,0.31,3.94,0.31
			c2.17,0,4.29-0.41,6.38-1.23c2.09-0.82,3.75-1.91,4.98-3.27c0.13-0.14,0.26-0.29,0.38-0.43c-1.01,0.79-2.21,1.46-3.61,2.01
			C26.74,33.78,24.61,34.19,22.45,34.19z"/>
		<path d="M41.89,13.13c0.93,0.63,2.21,0.95,3.82,0.95c1.61,0,3.05-0.43,4.32-1.3c0.66-0.45,1.14-0.96,1.46-1.51
			c-1.19,0.74-2.53,1.12-4.02,1.12c-1.61,0-2.89-0.32-3.82-0.95c-0.93-0.63-1.4-1.49-1.4-2.56c0-0.67,0.15-1.27,0.44-1.81
			c-0.05,0.03-0.1,0.06-0.16,0.09c-1.36,0.82-2.04,1.96-2.04,3.41C40.49,11.64,40.96,12.49,41.89,13.13z"/>
		<path d="M40.16,43.63c-0.89-0.98-1.33-2.47-1.33-4.48c0-2.01,1.01-7.39,3.03-16.15l-2.32-3.48c-0.61,0.33-1.25,0.69-1.91,1.08
			c0,0.12-0.01,0.24-0.01,0.36l2.49,3.73c-2.02,8.76-3.03,14.14-3.03,16.15c0,2.01,0.44,3.5,1.33,4.48
			c0.88,0.98,2.32,1.47,4.29,1.47c1.98,0,3.85-0.78,5.62-2.32c-0.1-0.09-0.19-0.18-0.27-0.28c-1.16,0.61-2.35,0.91-3.59,0.91
			C42.48,45.1,41.05,44.61,40.16,43.63z"/>
		<path d="M66,43.92c-0.79-0.25-1.9-0.65-3.32-1.19c-1.74,1.36-3.4,2.04-4.98,2.04c-1.58,0-2.77-0.44-3.56-1.33
			c-0.79-0.88-1.19-2-1.19-3.34c0-1.11,0.34-2.16,1.02-3.13c-0.49,0.3-0.93,0.67-1.3,1.1c-0.98,1.14-1.47,2.38-1.47,3.72
			c0,1.34,0.39,2.46,1.19,3.34c0.79,0.88,1.98,1.33,3.56,1.33c1.58,0,3.24-0.68,4.98-2.04c1.42,0.54,2.53,0.93,3.32,1.19
			c2.28,0.79,4.44,1.19,6.5,1.19c2.05,0,3.81-0.55,5.26-1.66c0.59-0.45,1.05-0.93,1.4-1.45c-1.38,0.94-3.02,1.41-4.91,1.41
			C70.44,45.1,68.28,44.71,66,43.92z"/>
		<path d="M66.38,26.09c-3.92-0.13-6.62-0.71-8.11-1.75c-1.49-1.04-2.23-2.64-2.23-4.79c0-0.49,0.06-1.19,0.18-2.07
			c-0.48-0.18-0.95-0.37-1.41-0.56c-0.35,2.02-0.52,3.46-0.52,4.32c0,2.15,0.74,3.75,2.23,4.79c1.49,1.04,4.19,1.63,8.11,1.75
			l-6.21,6.59c0.06-0.01,0.12-0.02,0.19-0.03L66.38,26.09z"/>
		<path d="M94.64,43.92c-0.79-0.25-1.9-0.65-3.32-1.19c-1.74,1.36-3.4,2.04-4.98,2.04c-1.58,0-2.77-0.44-3.56-1.33
			c-0.79-0.88-1.19-2-1.19-3.34c0-1.11,0.34-2.16,1.02-3.13c-0.49,0.3-0.93,0.67-1.3,1.1c-0.98,1.14-1.47,2.38-1.47,3.72
			c0,1.34,0.39,2.46,1.19,3.34c0.79,0.88,1.98,1.33,3.56,1.33c1.58,0,3.24-0.68,4.98-2.04c1.42,0.54,2.53,0.93,3.32,1.19
			c2.28,0.79,4.44,1.19,6.5,1.19c2.05,0,3.81-0.55,5.26-1.66c0.59-0.45,1.05-0.93,1.4-1.45c-1.38,0.94-3.02,1.41-4.91,1.41
			C99.09,45.1,96.92,44.71,94.64,43.92z"/>
		<path d="M95.02,26.09c-3.92-0.13-6.62-0.71-8.11-1.75c-1.49-1.04-2.23-2.64-2.23-4.79c0-0.49,0.06-1.19,0.18-2.07
			c-0.48-0.18-0.95-0.37-1.41-0.56c-0.35,2.02-0.52,3.46-0.52,4.32c0,2.15,0.74,3.75,2.23,4.79c1.49,1.04,4.19,1.63,8.11,1.75
			l-6.21,6.59c0.06-0.01,0.12-0.02,0.19-0.03L95.02,26.09z"/>
		<path d="M131.09,43.39c-0.87-1.14-1.3-2.91-1.3-5.31l-0.47-0.24c-0.36,0.95-0.78,1.8-1.26,2.58c0.07,2.07,0.5,3.63,1.29,4.66
			c0.87,1.14,2.26,1.71,4.17,1.71c1.91,0,3.75-0.78,5.52-2.32c-0.1-0.08-0.19-0.18-0.28-0.27c-1.14,0.6-2.3,0.9-3.49,0.9
			C133.35,45.1,131.96,44.53,131.09,43.39z"/>
		<path d="M113.85,42.07c-1.61-2.02-2.42-4.73-2.42-8.11c0-4.95,1.57-9.14,4.7-12.57c-0.4,0.34-0.79,0.69-1.17,1.07
			c-3.53,3.54-5.29,7.94-5.29,13.18c0,3.38,0.81,6.09,2.42,8.11c1.61,2.02,3.76,3.03,6.45,3.03c1.96,0,3.74-0.64,5.33-1.92
			c0.56-0.45,1.07-0.96,1.54-1.53c-1.54,1.17-3.25,1.76-5.12,1.76C117.61,45.1,115.46,44.09,113.85,42.07z"/>
		<path d="M123.07,24.59c2.24-1.83,4.78-2.74,7.62-2.74c-0.95,4.36-1.57,8.14-1.85,11.33c-0.39,0.76-0.82,1.44-1.3,2.04
			c0.04-0.03,0.08-0.05,0.12-0.08c1.17-0.88,2.15-2.1,2.94-3.65c0.28-3.19,0.9-6.97,1.85-11.33c-3.19,0-6.01,1.15-8.44,3.46
			C123.66,23.94,123.35,24.26,123.07,24.59z"/>
	</g>
	<g>
		<path class="st2" d="M335.04,42.09c0,0-0.36-0.44-0.36-2.07c0-1.31,0.25-3.98,1.42-9.23c1.38-6.19,1.57-7.87,1.57-8.7
			c0-4.24-2.52-6.87-6.59-6.87c-0.83,0-1.65,0.09-2.46,0.27l-0.12-0.57l-1.96-0.44c-1.36-0.3-2.84-0.45-4.42-0.45
			c-6.08,0-11.26,2.1-15.37,6.23c-0.35,0.36-0.69,0.72-1.01,1.09c-0.32-1.68-1.36-3.68-4.16-5.31c-2.29-1.34-5.15-2.01-8.5-2.01
			c-3.07,0-5.88,0.35-8.37,1.04c-2.76,0.76-5.12,2.14-7.01,4.09c-0.68,0.7-1.25,1.46-1.71,2.27c-0.16-0.21-0.32-0.43-0.5-0.62
			c-1.69-1.88-3.82-2.96-6.18-3.14c-0.09-0.38-0.2-0.75-0.32-1.11l-0.56-1.68l-1.73-0.38c-1.36-0.3-2.73-0.45-4.09-0.45
			c-5.88,0-10.81,1.9-14.67,5.65c-0.01,0.01-0.01,0.02-0.02,0.02c0.43-2.57,0.51-3.54,0.51-4.06c0-5.56-3.5-7.54-6.78-7.54
			c-3.03,0-5.89,0.65-8.51,1.93c-2.58,1.26-4.82,3.01-6.69,5.21c-1.2,1.44-2.31,2.98-3.31,4.64c-0.41-1.8-0.89-3.37-1.44-4.73
			c-0.71-1.8-1.68-3.26-2.87-4.34c-1.18-1.07-2.46-1.82-3.81-2.22c-1.21-0.36-2.57-0.53-4.19-0.53c-3.54,0-7.39,1.33-11.46,3.96
			l-2.34,1.51l3.29,6.65c-2.55,14.2-2.85,17.97-2.85,19.57c0,3.08,0.64,5.42,1.95,7.18c1.03,1.38,3.07,3.03,6.92,3.03
			c2.74,0,5.36-0.93,7.8-2.76l1.81-1.36c0.05,0.05,0.1,0.1,0.16,0.15c1.2,1.14,2.69,1.74,4.31,1.74c2.84,0,5.36-1.02,7.5-3.03
			l0.85-0.8l0.01-0.06c0.32,1.18,0.81,2.2,1.47,3.08c1.03,1.38,3.07,3.03,6.92,3.03c2.74,0,5.36-0.93,7.8-2.76l1.88-1.41
			c2.97,2.73,6.94,4.12,11.8,4.12c2.45,0,4.88-0.49,7.21-1.44c2.3-0.95,4.39-2.29,6.21-4c0.37-0.35,0.73-0.72,1.07-1.11
			c0.42,1.67,1.61,3.69,4.67,5.01c2.42,1.04,5.76,1.55,10.23,1.55c3.22,0,6.52-0.71,9.8-2.1l0.06-0.02
			c1.86-0.83,3.44-2.06,4.71-3.63c0.31,0.54,0.67,1.06,1.05,1.54c2.2,2.76,5.27,4.21,8.89,4.21c2.68,0,5.13-0.88,7.29-2.61
			c0.26-0.21,0.52-0.43,0.77-0.67c0.08,0.12,0.16,0.23,0.24,0.34c1.02,1.34,3.01,2.94,6.66,2.94c2.68,0,5.23-1.04,7.58-3.1l2.76-2.4
			L335.04,42.09z"/>
		<path class="st0" d="M237.53,46.58c-2.06,0-3.53-0.59-4.41-1.78c-0.89-1.19-1.33-2.93-1.33-5.24c0-2.31,0.74-7.62,2.23-15.93
			h-0.76c-1.93,2.53-3.53,5.55-4.79,9.06c-1.26,3.51-2.04,6.67-2.32,9.48c-1.55,1.45-3.34,2.18-5.36,2.18
			c-0.82,0-1.54-0.29-2.16-0.88c-0.62-0.58-1.23-1.6-1.83-3.06c-1.17-2.94-2.01-8.54-2.51-16.79h-0.76
			c-1.55,6.8-2.32,11.59-2.32,14.37c0,2.78,0.47,4.93,1.42,6.45c-1.9,1.42-3.87,2.13-5.93,2.13c-2.06,0-3.53-0.59-4.41-1.78
			c-0.89-1.19-1.33-2.96-1.33-5.31c0-2.35,1-9.03,2.99-20.03l-2.51-5.07c3.57-2.31,6.83-3.46,9.77-3.46c1.3,0,2.39,0.13,3.3,0.4
			c0.9,0.27,1.77,0.78,2.61,1.54c0.84,0.76,1.52,1.82,2.06,3.18c1.23,3.07,2.12,7.54,2.66,13.42h0.57
			c1.64-4.84,3.92-8.99,6.83-12.47c1.58-1.86,3.47-3.33,5.67-4.41c2.2-1.07,4.58-1.61,7.14-1.61c2.43,0,3.65,1.47,3.65,4.41
			c0,0.98-0.61,4.62-1.83,10.93c-1.22,6.31-1.83,10.06-1.83,11.26c0,3.07,0.47,5.36,1.42,6.88
			C241.56,45.87,239.58,46.58,237.53,46.58z"/>
		<path class="st0" d="M268.97,20.5c1.77,0,3.3,0.71,4.58,2.13c1.28,1.42,1.92,3.49,1.92,6.19s-0.47,5.2-1.42,7.49
			c-0.95,2.29-2.2,4.17-3.75,5.62c-1.55,1.45-3.3,2.58-5.26,3.39c-1.96,0.81-3.97,1.21-6.02,1.21c-4.14,0-7.41-1.14-9.82-3.41
			c-2.4-2.28-3.6-5.29-3.6-9.06c0-5.09,1.64-9.22,4.91-12.4c3.27-3.18,7.44-4.77,12.49-4.77c1.14,0,2.28,0.13,3.41,0.38
			c0.35,1.04,0.54,2.23,0.57,3.56C267.64,20.61,268.3,20.5,268.97,20.5z M263.13,27.09c0-0.88,0.21-1.88,0.64-2.99
			c0.43-1.11,1.11-1.99,2.06-2.66c-4.17,0.89-7.05,2.58-8.63,5.07c-1.36,2.15-2.04,4.36-2.04,6.64c0,2.28,0.47,4.1,1.4,5.48
			c0.93,1.38,2.13,2.06,3.58,2.06c3.22,0,5.5-2.1,6.83-6.31C264.41,32.81,263.13,30.38,263.13,27.09z"/>
		<path class="st0" d="M292.25,23.2c-1.17,0.35-2.1,0.85-2.8,1.49c-0.7,0.65-1.31,1.57-1.85,2.77c5.34,0.79,9.1,1.93,11.29,3.41
			c2.18,1.49,3.27,3.6,3.27,6.35c0,1.74-0.49,3.25-1.47,4.53c-0.98,1.28-2.21,2.25-3.7,2.92c-2.91,1.23-5.77,1.85-8.58,1.85
			c-8,0-12-1.72-12-5.17c0-1.74,0.77-3.48,2.32-5.22c0.79,1.11,1.98,2.06,3.58,2.85c1.6,0.79,3.15,1.19,4.67,1.19
			c2.62,0,4.2-1.15,4.74-3.46c-4.81-0.57-8.28-1.64-10.43-3.22c-2.15-1.58-3.22-3.81-3.22-6.69c0-2.28,0.75-4.19,2.25-5.74
			c1.5-1.55,3.37-2.63,5.6-3.25s4.74-0.92,7.54-0.92c2.8,0,5.11,0.53,6.92,1.59c1.82,1.06,2.73,2.35,2.73,3.86
			c0,1.52-0.53,2.69-1.59,3.51c-1.06,0.82-2.21,1.23-3.46,1.23c-1.25,0-2.39-0.33-3.41-1C293.62,25.43,292.82,24.47,292.25,23.2z"/>
		<path class="st0" d="M322.41,39.52l-0.47-0.24c-0.85,2.28-2.08,4.05-3.67,5.33c-1.6,1.28-3.38,1.92-5.33,1.92
			c-2.69,0-4.84-1.01-6.45-3.03c-1.61-2.02-2.42-4.73-2.42-8.11c0-5.25,1.76-9.64,5.29-13.18c3.52-3.54,7.91-5.31,13.16-5.31
			c1.36,0,2.61,0.13,3.75,0.38c0.19,0.89,0.3,1.66,0.33,2.32c1.58-1.01,3.21-1.52,4.88-1.52c2.31,0,3.46,1.25,3.46,3.75
			c0,0.89-0.5,3.56-1.49,8.01c-1,4.46-1.49,7.76-1.49,9.91c0,2.15,0.49,3.64,1.47,4.46c-1.77,1.55-3.61,2.32-5.52,2.32
			c-1.91,0-3.3-0.57-4.17-1.71C322.84,43.69,322.41,41.92,322.41,39.52z M312.97,33.07c0,1.55,0.32,2.74,0.97,3.58
			c0.65,0.84,1.57,1.26,2.77,1.26c1.2,0,2.39-0.44,3.56-1.33c1.17-0.88,2.15-2.1,2.94-3.65c0.28-3.19,0.9-6.97,1.85-11.33
			c-3.19,0-6.01,1.15-8.44,3.46C314.19,27.36,312.97,30.03,312.97,33.07z"/>
		<path d="M267.24,20.02c-0.23,0.05-0.45,0.1-0.67,0.15c0.01,0.12,0.01,0.25,0.02,0.37C266.79,20.35,267.01,20.18,267.24,20.02z"/>
		<path d="M220.03,42.04c-0.62-0.58-1.23-1.6-1.83-3.06c-1.17-2.94-2.01-8.54-2.51-16.79h-0.76c-0.31,1.38-0.6,2.67-0.85,3.89
			c0.51,7.05,1.3,11.92,2.36,14.59c0.6,1.45,1.21,2.47,1.83,3.06c0.62,0.59,1.34,0.88,2.16,0.88c2.02,0,3.81-0.73,5.36-2.18
			c0.01-0.15,0.04-0.3,0.05-0.45c-1.12,0.62-2.34,0.94-3.66,0.94C221.37,42.92,220.65,42.63,220.03,42.04z"/>
		<path d="M223.8,28.03c1.64-4.84,3.92-8.99,6.83-12.47c0.12-0.14,0.25-0.28,0.37-0.42c-0.76,0.64-1.47,1.34-2.13,2.11
			c-2.32,2.78-4.24,6-5.75,9.65c0.04,0.37,0.07,0.75,0.11,1.13H223.8z"/>
		<path d="M203.7,43.37c-0.89-1.19-1.33-2.96-1.33-5.31c0-2.35,1-9.03,2.99-20.03l-2.26-4.57c-0.66,0.36-1.32,0.75-2,1.19l2.51,5.07
			c-1.99,11-2.99,17.68-2.99,20.03c0,2.36,0.44,4.13,1.33,5.31c0.88,1.19,2.35,1.78,4.41,1.78c2.05,0,4.03-0.71,5.93-2.13
			c-0.09-0.15-0.18-0.31-0.26-0.47c-1.27,0.6-2.58,0.91-3.91,0.91C206.05,45.15,204.58,44.56,203.7,43.37z"/>
		<path d="M234.52,43.37c-0.89-1.19-1.33-2.93-1.33-5.24c0-2.31,0.74-7.62,2.23-15.93h-0.76c-0.41,0.54-0.81,1.11-1.19,1.69h0.19
			c-1.49,8.31-2.23,13.63-2.23,15.93c0,2.31,0.44,4.05,1.33,5.24c0.88,1.19,2.35,1.78,4.41,1.78c2.05,0,4.03-0.71,5.93-2.13
			c-0.09-0.15-0.18-0.31-0.26-0.47c-1.27,0.6-2.58,0.91-3.92,0.91C236.87,45.15,235.4,44.56,234.52,43.37z"/>
		<path d="M260.41,45.1c-4.14,0-7.41-1.14-9.82-3.41c-2.4-2.28-3.6-5.29-3.6-9.06c0-4.66,1.37-8.51,4.11-11.56
			c-0.33,0.27-0.65,0.55-0.96,0.85c-3.27,3.18-4.91,7.31-4.91,12.4c0,3.76,1.2,6.78,3.6,9.06c2.4,2.28,5.67,3.41,9.82,3.41
			c2.05,0,4.06-0.4,6.02-1.21c1.96-0.81,3.71-1.94,5.26-3.39c0.32-0.3,0.63-0.63,0.93-0.97c-1.34,1.11-2.82,2-4.44,2.67
			C264.47,44.7,262.47,45.1,260.41,45.1z"/>
		<path d="M264.54,25.66c0-0.88,0.21-1.88,0.64-2.99c0.32-0.84,0.8-1.55,1.42-2.13c-0.01-0.12-0.01-0.25-0.02-0.37
			c-3.39,0.82-5.87,2.21-7.42,4.17c1.6-1.2,3.71-2.07,6.34-2.63c-0.95,0.66-1.64,1.55-2.06,2.66c-0.43,1.11-0.64,2.1-0.64,2.99
			c0,3.29,1.28,5.72,3.84,7.3c-0.47,1.49-1.06,2.71-1.77,3.68c1.53-1,2.71-2.78,3.53-5.37C265.82,31.38,264.54,28.95,264.54,25.66z"
			/>
		<path d="M293.13,35.29c-4.81-0.57-8.28-1.64-10.43-3.22c-2.15-1.58-3.22-3.81-3.22-6.69c0-2,0.58-3.71,1.73-5.15
			c-0.43,0.34-0.85,0.7-1.23,1.1c-1.5,1.55-2.25,3.46-2.25,5.74c0,2.88,1.07,5.11,3.22,6.69c2.15,1.58,5.63,2.66,10.43,3.22
			c-0.11,0.48-0.27,0.9-0.47,1.28C292.05,37.71,292.79,36.72,293.13,35.29z"/>
		<path d="M296.05,24.66c-1.03-0.66-1.83-1.63-2.39-2.89c-1.17,0.35-2.1,0.85-2.8,1.49c-0.31,0.29-0.6,0.63-0.88,1.03
			c0.55-0.34,1.19-0.62,1.92-0.83c0.57,1.26,1.37,2.23,2.39,2.89c1.03,0.66,2.17,1,3.41,1c1.25,0,2.4-0.41,3.46-1.23
			c0.44-0.34,0.79-0.75,1.04-1.22c-0.86,0.5-1.78,0.76-2.75,0.76C298.21,25.66,297.07,25.33,296.05,24.66z"/>
		<path d="M289.81,45.1c-8,0-12-1.72-12-5.17c0-1.05,0.29-2.1,0.86-3.16c-0.1-0.12-0.2-0.24-0.29-0.37
			c-1.55,1.74-2.32,3.48-2.32,5.22c0,3.45,4,5.17,12,5.17c2.81,0,5.67-0.62,8.58-1.85c1.42-0.63,2.6-1.55,3.56-2.75
			c-0.56,0.41-1.16,0.77-1.81,1.06C295.48,44.48,292.62,45.1,289.81,45.1z"/>
		<path d="M325.11,43.39c-0.87-1.14-1.3-2.91-1.3-5.31l-0.47-0.24c-0.36,0.95-0.78,1.8-1.26,2.58c0.07,2.07,0.5,3.63,1.29,4.66
			c0.87,1.14,2.26,1.71,4.17,1.71c1.91,0,3.75-0.78,5.52-2.32c-0.1-0.08-0.19-0.18-0.28-0.27c-1.14,0.6-2.3,0.9-3.49,0.9
			C327.37,45.1,325.98,44.53,325.11,43.39z"/>
		<path d="M317.09,24.59c2.24-1.83,4.78-2.74,7.62-2.74c-0.95,4.36-1.56,8.14-1.85,11.33c-0.39,0.76-0.82,1.44-1.3,2.04
			c0.04-0.03,0.08-0.05,0.12-0.08c1.17-0.88,2.15-2.1,2.94-3.65c0.28-3.19,0.9-6.97,1.85-11.33c-3.19,0-6.01,1.15-8.44,3.46
			C317.69,23.94,317.38,24.26,317.09,24.59z"/>
		<path d="M307.88,42.07c-1.61-2.02-2.42-4.73-2.42-8.11c0-4.95,1.57-9.13,4.7-12.57c-0.4,0.34-0.79,0.69-1.17,1.07
			c-3.52,3.54-5.29,7.94-5.29,13.18c0,3.38,0.81,6.09,2.42,8.11s3.76,3.03,6.45,3.03c1.96,0,3.74-0.64,5.33-1.92
			c0.56-0.45,1.07-0.96,1.54-1.53c-1.54,1.17-3.25,1.76-5.12,1.76C311.64,45.1,309.49,44.09,307.88,42.07z"/>
	</g>
	<g>
		<g>
			<path d="M170.97,47.66c-1.94,0.34-3.87,0.68-5.81,1.02c-1.01,0.18-2.01,0.36-3.03,0.5c-0.4,0.06-0.54,0.2-0.53,0.62
				c0.03,1.53,0.02,3.05,0.01,4.58c0,0.53-0.24,0.95-0.76,1.11c-0.49,0.15-0.92,0.02-1.23-0.41c-0.18-0.25-0.2-0.53-0.2-0.83
				c0-1.35-0.02-2.71,0.01-4.06c0.01-0.48-0.15-0.55-0.56-0.47c-1.25,0.23-2.51,0.46-3.77,0.64c-0.36,0.05-0.42,0.19-0.42,0.52
				c0.01,2.42,0,4.83,0.01,7.25c0,0.47-0.16,0.83-0.57,1.06c-0.37,0.21-0.74,0.18-1.1-0.04c-0.44-0.29-0.52-0.73-0.52-1.22
				c0.01-2.16,0.01-4.33-0.01-6.49c0-0.21,0.2-0.64-0.29-0.56c-0.36,0.06-0.92-0.15-0.91,0.62c0.03,3.81,0.02,7.61,0.01,11.42
				c0,0.94-0.75,1.51-1.52,1.16c-0.52-0.24-0.67-0.69-0.67-1.24c0.01-2.74,0.09-5.49-0.02-8.23c-0.09-2.07,0.37-3.91,1.27-5.77
				c2.59-5.35,5.04-10.77,7.55-16.16c0.05-0.1,0.11-0.2,0.16-0.31c1.7,1.56,3.67,2.3,6,1.91c3.34-0.57,5.8-3.5,5.62-6.96
				c-0.18-3.55-2.66-6.06-6.23-6.5c0.58-1.28,1.18-2.56,1.74-3.84c0.18-0.41,0.39-0.18,0.59-0.07c3.63,2,6.88,4.49,9.73,7.51
				c5.32,5.65,8.72,12.3,10.18,19.93c0.03,0.17,0.04,0.35,0.08,0.51c0.06,0.21,0.02,0.31-0.22,0.35c-3.01,0.49-6.01,0.99-9.02,1.49
				c-1.06-1.31-2.41-1.87-4.08-1.62C171.08,45.31,170.49,46.32,170.97,47.66z M177.74,40.93c1.54,0.01,2.78-1.21,2.79-2.73
				c0.01-1.5-1.21-2.73-2.72-2.75c-1.56-0.02-2.8,1.17-2.82,2.7C174.97,39.67,176.21,40.92,177.74,40.93z M164.32,42.48
				c0-1.56-1.18-2.75-2.74-2.75c-1.54,0-2.72,1.17-2.74,2.7c-0.01,1.56,1.17,2.78,2.71,2.78C163.1,45.22,164.31,44.02,164.32,42.48z
				"/>
			<path d="M193.38,43.72c0.07,0.15-0.09,0.2-0.32,0.24c-1.79,0.3-3.58,0.59-5.37,0.91c-0.43,0.08-0.42-0.17-0.47-0.45
				c-0.76-4.19-2.11-8.18-4.11-11.94c-3.86-7.23-9.39-12.84-16.55-16.81c-0.5-0.28-0.53-0.48-0.29-0.95
				c0.73-1.47,1.42-2.96,2.08-4.46c0.19-0.43,0.35-0.47,0.75-0.25c12.41,6.93,20.36,17.27,23.74,31.09
				C193.04,41.93,193.18,42.76,193.38,43.72z"/>
			<path d="M163.48,20.84c3.57,0.44,6.05,2.95,6.23,6.5c0.18,3.46-2.28,6.39-5.62,6.96c-2.32,0.4-4.29-0.34-6-1.91
				C159.86,28.54,161.62,24.67,163.48,20.84z"/>
			<path d="M170.97,47.66c-0.48-1.35,0.11-2.36,1.51-2.56c1.67-0.25,3.03,0.31,4.08,1.62C174.71,47.1,172.85,47.41,170.97,47.66z"/>
			<path d="M161.62,60.58c0,0.37,0.02,0.73-0.01,1.1c-0.05,0.65-0.55,1.08-1.16,1.04c-0.58-0.03-1.01-0.48-1.02-1.11
				c-0.02-0.69-0.02-1.39,0-2.08c0.02-0.63,0.45-1.08,1.03-1.1c0.61-0.03,1.09,0.41,1.14,1.06
				C161.64,59.85,161.62,60.22,161.62,60.58z"/>
			<path d="M177.74,40.93c-1.53-0.01-2.76-1.26-2.74-2.78c0.02-1.53,1.26-2.72,2.82-2.7c1.51,0.02,2.72,1.24,2.72,2.75
				C180.52,39.72,179.28,40.93,177.74,40.93z"/>
			<path d="M164.32,42.48c0,1.55-1.21,2.74-2.77,2.73c-1.54-0.01-2.73-1.23-2.71-2.78c0.01-1.53,1.2-2.7,2.74-2.7
				C163.14,39.73,164.32,40.92,164.32,42.48z"/>
		</g>
		<g>
			<g>
				<path class="st3" d="M170.19,45.32c-1.94,0.34-3.87,0.68-5.81,1.02c-1.01,0.18-2.01,0.36-3.03,0.5c-0.4,0.06-0.54,0.2-0.53,0.62
					c0.03,1.53,0.02,3.05,0.01,4.58c0,0.53-0.24,0.95-0.76,1.11c-0.49,0.15-0.92,0.02-1.23-0.41c-0.18-0.25-0.2-0.53-0.2-0.83
					c0-1.35-0.02-2.71,0.01-4.06c0.01-0.48-0.15-0.55-0.56-0.47c-1.25,0.23-2.51,0.46-3.77,0.64c-0.36,0.05-0.42,0.19-0.42,0.52
					c0.01,2.42,0,4.83,0.01,7.25c0,0.47-0.16,0.83-0.57,1.06c-0.37,0.21-0.74,0.18-1.1-0.04c-0.44-0.29-0.52-0.73-0.52-1.22
					c0.01-2.16,0.01-4.33-0.01-6.49c0-0.21,0.2-0.64-0.29-0.56c-0.36,0.06-0.92-0.15-0.91,0.62c0.03,3.81,0.02,7.61,0.01,11.42
					c0,0.94-0.75,1.51-1.52,1.16c-0.52-0.24-0.67-0.69-0.67-1.24c0.01-2.74,0.09-5.49-0.02-8.23c-0.09-2.07,0.37-3.91,1.27-5.77
					c2.59-5.35,5.04-10.77,7.55-16.16c0.05-0.1,0.11-0.2,0.16-0.31c1.7,1.56,3.67,2.3,6,1.91c3.34-0.57,5.8-3.5,5.62-6.96
					c-0.18-3.55-2.66-6.06-6.23-6.5c0.58-1.28,1.18-2.56,1.74-3.84c0.18-0.41,0.39-0.18,0.59-0.07c3.63,2,6.88,4.49,9.73,7.51
					c5.32,5.65,8.72,12.3,10.18,19.93c0.03,0.17,0.04,0.35,0.08,0.51c0.06,0.21,0.02,0.31-0.22,0.35c-3.01,0.49-6.01,0.99-9.02,1.49
					c-1.06-1.31-2.41-1.87-4.08-1.62C170.3,42.96,169.71,43.97,170.19,45.32z M176.96,38.58c1.54,0.01,2.78-1.21,2.79-2.73
					c0.01-1.5-1.21-2.73-2.72-2.75c-1.56-0.02-2.8,1.17-2.82,2.7C174.19,37.33,175.43,38.57,176.96,38.58z M163.54,40.13
					c0-1.56-1.18-2.75-2.74-2.75c-1.54,0-2.72,1.17-2.74,2.7c-0.01,1.56,1.17,2.78,2.71,2.78
					C162.32,42.88,163.53,41.68,163.54,40.13z"/>
				<path class="st4" d="M192.6,41.38c0.07,0.15-0.09,0.2-0.32,0.24c-1.79,0.3-3.58,0.59-5.37,0.91c-0.43,0.08-0.42-0.17-0.47-0.45
					c-0.76-4.19-2.11-8.18-4.11-11.94c-3.86-7.23-9.39-12.84-16.55-16.81c-0.5-0.28-0.53-0.48-0.29-0.95
					c0.73-1.47,1.42-2.96,2.08-4.46c0.19-0.43,0.35-0.47,0.75-0.25c12.41,6.93,20.36,17.27,23.74,31.09
					C192.26,39.58,192.4,40.42,192.6,41.38z"/>
				<path class="st5" d="M162.7,18.5c3.57,0.44,6.05,2.95,6.23,6.5c0.18,3.46-2.28,6.39-5.62,6.96c-2.32,0.4-4.29-0.34-6-1.91
					C159.08,26.19,160.84,22.32,162.7,18.5z"/>
				<path class="st5" d="M170.19,45.32c-0.48-1.35,0.11-2.36,1.51-2.56c1.67-0.25,3.03,0.31,4.08,1.62
					C173.93,44.75,172.07,45.07,170.19,45.32z"/>
				<path class="st6" d="M160.84,58.24c0,0.37,0.02,0.73-0.01,1.1c-0.05,0.65-0.55,1.08-1.16,1.04c-0.58-0.03-1.01-0.48-1.02-1.11
					c-0.02-0.69-0.02-1.39,0-2.08c0.02-0.63,0.45-1.08,1.03-1.1c0.61-0.03,1.09,0.41,1.14,1.06
					C160.86,57.51,160.84,57.87,160.84,58.24z"/>
				<path class="st7" d="M176.96,38.58c-1.53-0.01-2.76-1.26-2.74-2.78c0.02-1.53,1.26-2.72,2.82-2.7c1.51,0.02,2.72,1.24,2.72,2.75
					C179.74,37.37,178.5,38.59,176.96,38.58z"/>
				<path class="st7" d="M163.54,40.13c0,1.55-1.21,2.74-2.77,2.73c-1.54-0.01-2.73-1.23-2.71-2.78c0.01-1.53,1.2-2.7,2.74-2.7
					C162.36,37.38,163.54,38.57,163.54,40.13z"/>
			</g>
		</g>
	</g>
</g>
</svg>
